STARTFONT 2.1
FONT -DEC-Terminal-Medium-R-Narrow--14-100-100-100-C-6-ISO8859-8
SIZE 10 100 100
FONTBOUNDINGBOX 6 14 0 -2

STARTPROPERTIES 25
FONTNAME_REGISTRY ""
FAMILY_NAME "Terminal"
FOUNDRY "DEC"
WEIGHT_NAME "Medium"
SETWIDTH_NAME "Narrow"
SLANT "R"
ADD_STYLE_NAME ""
PIXEL_SIZE 14
RESOLUTION_X 100
RESOLUTION_Y 100
SPACING "C"
AVERAGE_WIDTH 60
CHARSET_REGISTRY "ISO8859"
CHARSET_ENCODING "8"
CHARSET_COLLECTIONS "ASCII ISO8859-8"
FULL_NAME "Terminal Narrow"
COPYRIGHT "Digital Israel"
CAP_HEIGHT 8
X_HEIGHT 6
QUAD_WIDTH 6
POINT_SIZE 100
WEIGHT 10
DEFAULT_CHAR 159
FONT_DESCENT 2
FONT_ASCENT 11
ENDPROPERTIES

CHARS 156

STARTCHAR space
ENCODING 32
SWIDTH 432 0
DWIDTH 6 0
BBX 1 8 3 0
BITMAP
00
00
00
00
00
00
00
00
ENDCHAR

STARTCHAR exclam
ENCODING 33
SWIDTH 432 0
DWIDTH 6 0
BBX 1 8 3 0
BITMAP
80
80
80
80
80
80
00
80
ENDCHAR

STARTCHAR quotedbl
ENCODING 34
SWIDTH 432 0
DWIDTH 6 0
BBX 3 3 2 6
BITMAP
A0
A0
A0
ENDCHAR

STARTCHAR numbersign
ENCODING 35
SWIDTH 432 0
DWIDTH 6 0
BBX 5 7 1 1
BITMAP
50
50
F8
50
F8
50
50
ENDCHAR

STARTCHAR dollar
ENCODING 36
SWIDTH 432 0
DWIDTH 6 0
BBX 5 8 1 0
BITMAP
20
70
A8
70
28
A8
70
20
ENDCHAR

STARTCHAR percent
ENCODING 37
SWIDTH 432 0
DWIDTH 6 0
BBX 6 8 0 0
BITMAP
48
A8
50
10
20
28
54
48
ENDCHAR

STARTCHAR ampersand
ENCODING 38
SWIDTH 432 0
DWIDTH 6 0
BBX 5 8 1 0
BITMAP
20
50
50
20
68
90
90
78
ENDCHAR

STARTCHAR quoteright
ENCODING 39
SWIDTH 432 0
DWIDTH 6 0
BBX 2 2 3 7
BITMAP
40
80
ENDCHAR

STARTCHAR parenleft
ENCODING 40
SWIDTH 432 0
DWIDTH 6 0
BBX 3 10 2 -1
BITMAP
20
40
40
80
80
80
80
40
40
20
ENDCHAR

STARTCHAR parenright
ENCODING 41
SWIDTH 432 0
DWIDTH 6 0
BBX 3 10 2 -1
BITMAP
80
40
40
20
20
20
20
40
40
80
ENDCHAR

STARTCHAR asterisk
ENCODING 42
SWIDTH 432 0
DWIDTH 6 0
BBX 5 6 1 2
BITMAP
20
A8
70
70
A8
20
ENDCHAR

STARTCHAR plus
ENCODING 43
SWIDTH 432 0
DWIDTH 6 0
BBX 5 5 1 2
BITMAP
20
20
F8
20
20
ENDCHAR

STARTCHAR comma
ENCODING 44
SWIDTH 432 0
DWIDTH 6 0
BBX 2 3 2 -1
BITMAP
40
40
80
ENDCHAR

STARTCHAR minus
ENCODING 45
SWIDTH 432 0
DWIDTH 6 0
BBX 5 1 1 4
BITMAP
F8
ENDCHAR

STARTCHAR period
ENCODING 46
SWIDTH 432 0
DWIDTH 6 0
BBX 1 2 3 0
BITMAP
80
80
ENDCHAR

STARTCHAR slash
ENCODING 47
SWIDTH 432 0
DWIDTH 6 0
BBX 4 8 1 0
BITMAP
10
10
20
20
40
40
80
80
ENDCHAR

STARTCHAR zero
ENCODING 48
SWIDTH 432 0
DWIDTH 6 0
BBX 5 8 1 0
BITMAP
20
50
88
88
88
88
50
20
ENDCHAR

STARTCHAR one
ENCODING 49
SWIDTH 432 0
DWIDTH 6 0
BBX 5 8 1 0
BITMAP
20
60
20
20
20
20
20
F8
ENDCHAR

STARTCHAR two
ENCODING 50
SWIDTH 432 0
DWIDTH 6 0
BBX 5 8 1 0
BITMAP
70
88
08
10
20
40
80
F8
ENDCHAR

STARTCHAR three
ENCODING 51
SWIDTH 432 0
DWIDTH 6 0
BBX 5 8 1 0
BITMAP
70
88
08
30
08
08
88
70
ENDCHAR

STARTCHAR four
ENCODING 52
SWIDTH 432 0
DWIDTH 6 0
BBX 5 8 1 0
BITMAP
10
30
50
90
90
F8
10
10
ENDCHAR

STARTCHAR five
ENCODING 53
SWIDTH 432 0
DWIDTH 6 0
BBX 5 8 1 0
BITMAP
F8
80
80
F0
88
08
88
70
ENDCHAR

STARTCHAR six
ENCODING 54
SWIDTH 432 0
DWIDTH 6 0
BBX 5 8 1 0
BITMAP
30
40
80
F0
88
88
88
70
ENDCHAR

STARTCHAR seven
ENCODING 55
SWIDTH 432 0
DWIDTH 6 0
BBX 5 8 1 0
BITMAP
F8
08
10
20
20
40
40
40
ENDCHAR

STARTCHAR eight
ENCODING 56
SWIDTH 432 0
DWIDTH 6 0
BBX 5 8 1 0
BITMAP
70
88
88
70
88
88
88
70
ENDCHAR

STARTCHAR nine
ENCODING 57
SWIDTH 432 0
DWIDTH 6 0
BBX 5 8 1 0
BITMAP
70
88
88
88
78
08
10
60
ENDCHAR

STARTCHAR colon
ENCODING 58
SWIDTH 432 0
DWIDTH 6 0
BBX 1 6 3 0
BITMAP
80
80
00
00
80
80
ENDCHAR

STARTCHAR semicolon
ENCODING 59
SWIDTH 432 0
DWIDTH 6 0
BBX 2 7 2 -1
BITMAP
40
40
00
00
40
40
80
ENDCHAR

STARTCHAR less
ENCODING 60
SWIDTH 432 0
DWIDTH 6 0
BBX 4 7 1 0
BITMAP
10
20
40
80
40
20
10
ENDCHAR

STARTCHAR equal
ENCODING 61
SWIDTH 432 0
DWIDTH 6 0
BBX 5 3 1 2
BITMAP
F8
00
F8
ENDCHAR

STARTCHAR greater
ENCODING 62
SWIDTH 432 0
DWIDTH 6 0
BBX 4 7 2 0
BITMAP
80
40
20
10
20
40
80
ENDCHAR

STARTCHAR question
ENCODING 63
SWIDTH 432 0
DWIDTH 6 0
BBX 5 8 1 0
BITMAP
70
88
08
10
20
20
00
20
ENDCHAR

STARTCHAR at
ENCODING 64
SWIDTH 432 0
DWIDTH 6 0
BBX 5 8 1 0
BITMAP
70
88
98
A8
A8
98
80
78
ENDCHAR

STARTCHAR A
ENCODING 65
SWIDTH 432 0
DWIDTH 6 0
BBX 5 8 1 0
BITMAP
20
50
50
88
88
F8
88
88
ENDCHAR

STARTCHAR B
ENCODING 66
SWIDTH 432 0
DWIDTH 6 0
BBX 5 8 1 0
BITMAP
F0
88
88
F0
88
88
88
F0
ENDCHAR

STARTCHAR C
ENCODING 67
SWIDTH 432 0
DWIDTH 6 0
BBX 5 8 1 0
BITMAP
70
88
80
80
80
80
88
70
ENDCHAR

STARTCHAR D
ENCODING 68
SWIDTH 432 0
DWIDTH 6 0
BBX 5 8 1 0
BITMAP
F0
88
88
88
88
88
88
F0
ENDCHAR

STARTCHAR E
ENCODING 69
SWIDTH 432 0
DWIDTH 6 0
BBX 4 8 2 0
BITMAP
F0
80
80
E0
80
80
80
F0
ENDCHAR

STARTCHAR F
ENCODING 70
SWIDTH 432 0
DWIDTH 6 0
BBX 4 8 2 0
BITMAP
F0
80
80
E0
80
80
80
80
ENDCHAR

STARTCHAR G
ENCODING 71
SWIDTH 432 0
DWIDTH 6 0
BBX 5 8 1 0
BITMAP
70
88
80
98
88
88
88
78
ENDCHAR

STARTCHAR H
ENCODING 72
SWIDTH 432 0
DWIDTH 6 0
BBX 5 8 1 0
BITMAP
88
88
88
F8
88
88
88
88
ENDCHAR

STARTCHAR I
ENCODING 73
SWIDTH 432 0
DWIDTH 6 0
BBX 5 8 1 0
BITMAP
F8
20
20
20
20
20
20
F8
ENDCHAR

STARTCHAR J
ENCODING 74
SWIDTH 432 0
DWIDTH 6 0
BBX 5 8 1 0
BITMAP
78
10
10
10
10
10
90
60
ENDCHAR

STARTCHAR K
ENCODING 75
SWIDTH 432 0
DWIDTH 6 0
BBX 5 8 1 0
BITMAP
88
90
A0
C0
C0
A0
90
88
ENDCHAR

STARTCHAR L
ENCODING 76
SWIDTH 432 0
DWIDTH 6 0
BBX 4 8 2 0
BITMAP
80
80
80
80
80
80
80
F0
ENDCHAR

STARTCHAR M
ENCODING 77
SWIDTH 432 0
DWIDTH 6 0
BBX 5 8 1 0
BITMAP
88
D8
D8
A8
A8
88
88
88
ENDCHAR

STARTCHAR N
ENCODING 78
SWIDTH 432 0
DWIDTH 6 0
BBX 5 8 1 0
BITMAP
88
C8
C8
A8
A8
98
98
88
ENDCHAR

STARTCHAR O
ENCODING 79
SWIDTH 432 0
DWIDTH 6 0
BBX 5 8 1 0
BITMAP
70
88
88
88
88
88
88
70
ENDCHAR

STARTCHAR P
ENCODING 80
SWIDTH 432 0
DWIDTH 6 0
BBX 5 8 1 0
BITMAP
F0
88
88
88
F0
80
80
80
ENDCHAR

STARTCHAR Q
ENCODING 81
SWIDTH 432 0
DWIDTH 6 0
BBX 5 9 1 -1
BITMAP
70
88
88
88
88
88
A8
70
08
ENDCHAR

STARTCHAR R
ENCODING 82
SWIDTH 432 0
DWIDTH 6 0
BBX 5 8 1 0
BITMAP
F0
88
88
88
F0
A0
90
88
ENDCHAR

STARTCHAR S
ENCODING 83
SWIDTH 432 0
DWIDTH 6 0
BBX 5 8 1 0
BITMAP
70
88
80
70
08
08
88
70
ENDCHAR

STARTCHAR T
ENCODING 84
SWIDTH 432 0
DWIDTH 6 0
BBX 5 8 1 0
BITMAP
F8
20
20
20
20
20
20
20
ENDCHAR

STARTCHAR U
ENCODING 85
SWIDTH 432 0
DWIDTH 6 0
BBX 5 8 1 0
BITMAP
88
88
88
88
88
88
88
70
ENDCHAR

STARTCHAR V
ENCODING 86
SWIDTH 432 0
DWIDTH 6 0
BBX 5 8 1 0
BITMAP
88
88
88
88
50
50
20
20
ENDCHAR

STARTCHAR W
ENCODING 87
SWIDTH 432 0
DWIDTH 6 0
BBX 5 8 1 0
BITMAP
88
88
88
A8
A8
A8
50
50
ENDCHAR

STARTCHAR X
ENCODING 88
SWIDTH 432 0
DWIDTH 6 0
BBX 5 8 1 0
BITMAP
88
88
50
20
50
50
88
88
ENDCHAR

STARTCHAR Y
ENCODING 89
SWIDTH 432 0
DWIDTH 6 0
BBX 5 8 1 0
BITMAP
88
88
50
50
20
20
20
20
ENDCHAR

STARTCHAR Z
ENCODING 90
SWIDTH 432 0
DWIDTH 6 0
BBX 5 8 1 0
BITMAP
F8
08
10
20
40
80
80
F8
ENDCHAR

STARTCHAR bracketleft
ENCODING 91
SWIDTH 432 0
DWIDTH 6 0
BBX 3 10 2 -1
BITMAP
E0
80
80
80
80
80
80
80
80
E0
ENDCHAR

STARTCHAR backslash
ENCODING 92
SWIDTH 432 0
DWIDTH 6 0
BBX 4 8 1 0
BITMAP
80
80
40
40
20
20
10
10
ENDCHAR

STARTCHAR bracketright
ENCODING 93
SWIDTH 432 0
DWIDTH 6 0
BBX 3 10 2 -1
BITMAP
E0
20
20
20
20
20
20
20
20
E0
ENDCHAR

STARTCHAR asciicircum
ENCODING 94
SWIDTH 432 0
DWIDTH 6 0
BBX 5 3 1 6
BITMAP
20
50
88
ENDCHAR

STARTCHAR underscore
ENCODING 95
SWIDTH 432 0
DWIDTH 6 0
BBX 5 1 1 0
BITMAP
F8
ENDCHAR

STARTCHAR quoteleft
ENCODING 96
SWIDTH 432 0
DWIDTH 6 0
BBX 2 2 2 7
BITMAP
80
40
ENDCHAR

STARTCHAR a
ENCODING 97
SWIDTH 432 0
DWIDTH 6 0
BBX 5 6 1 0
BITMAP
70
08
78
88
88
78
ENDCHAR

STARTCHAR b
ENCODING 98
SWIDTH 432 0
DWIDTH 6 0
BBX 5 8 1 0
BITMAP
80
80
B0
C8
88
88
C8
B0
ENDCHAR

STARTCHAR c
ENCODING 99
SWIDTH 432 0
DWIDTH 6 0
BBX 5 6 1 0
BITMAP
70
88
80
80
88
70
ENDCHAR

STARTCHAR d
ENCODING 100
SWIDTH 432 0
DWIDTH 6 0
BBX 5 8 1 0
BITMAP
08
08
68
98
88
88
98
68
ENDCHAR

STARTCHAR e
ENCODING 101
SWIDTH 432 0
DWIDTH 6 0
BBX 5 6 1 0
BITMAP
70
88
F8
80
88
70
ENDCHAR

STARTCHAR f
ENCODING 102
SWIDTH 432 0
DWIDTH 6 0
BBX 5 8 1 0
BITMAP
30
48
40
F0
40
40
40
40
ENDCHAR

STARTCHAR g
ENCODING 103
SWIDTH 432 0
DWIDTH 6 0
BBX 5 8 1 -2
BITMAP
68
90
90
60
80
F0
88
70
ENDCHAR

STARTCHAR h
ENCODING 104
SWIDTH 432 0
DWIDTH 6 0
BBX 5 8 1 0
BITMAP
80
80
B0
C8
88
88
88
88
ENDCHAR

STARTCHAR i
ENCODING 105
SWIDTH 432 0
DWIDTH 6 0
BBX 5 8 1 0
BITMAP
20
00
60
20
20
20
20
F8
ENDCHAR

STARTCHAR j
ENCODING 106
SWIDTH 432 0
DWIDTH 6 0
BBX 4 10 1 -2
BITMAP
10
00
30
10
10
10
10
10
90
60
ENDCHAR

STARTCHAR k
ENCODING 107
SWIDTH 432 0
DWIDTH 6 0
BBX 5 8 1 0
BITMAP
80
80
90
A0
C0
A0
90
88
ENDCHAR

STARTCHAR l
ENCODING 108
SWIDTH 432 0
DWIDTH 6 0
BBX 5 8 1 0
BITMAP
60
20
20
20
20
20
20
F8
ENDCHAR

STARTCHAR m
ENCODING 109
SWIDTH 432 0
DWIDTH 6 0
BBX 5 6 1 0
BITMAP
D0
A8
A8
A8
88
88
ENDCHAR

STARTCHAR n
ENCODING 110
SWIDTH 432 0
DWIDTH 6 0
BBX 5 6 1 0
BITMAP
B0
C8
88
88
88
88
ENDCHAR

STARTCHAR o
ENCODING 111
SWIDTH 432 0
DWIDTH 6 0
BBX 5 6 1 0
BITMAP
70
88
88
88
88
70
ENDCHAR

STARTCHAR p
ENCODING 112
SWIDTH 432 0
DWIDTH 6 0
BBX 5 8 1 -2
BITMAP
B0
C8
88
88
C8
B0
80
80
ENDCHAR

STARTCHAR q
ENCODING 113
SWIDTH 432 0
DWIDTH 6 0
BBX 5 8 1 -2
BITMAP
68
98
88
88
98
68
08
08
ENDCHAR

STARTCHAR r
ENCODING 114
SWIDTH 432 0
DWIDTH 6 0
BBX 5 6 1 0
BITMAP
B8
48
40
40
40
40
ENDCHAR

STARTCHAR s
ENCODING 115
SWIDTH 432 0
DWIDTH 6 0
BBX 5 6 1 0
BITMAP
70
88
70
08
88
70
ENDCHAR

STARTCHAR t
ENCODING 116
SWIDTH 432 0
DWIDTH 6 0
BBX 5 8 1 0
BITMAP
40
40
F0
40
40
40
48
30
ENDCHAR

STARTCHAR u
ENCODING 117
SWIDTH 432 0
DWIDTH 6 0
BBX 5 6 1 0
BITMAP
88
88
88
88
98
68
ENDCHAR

STARTCHAR v
ENCODING 118
SWIDTH 432 0
DWIDTH 6 0
BBX 5 6 1 0
BITMAP
88
88
88
50
50
20
ENDCHAR

STARTCHAR w
ENCODING 119
SWIDTH 432 0
DWIDTH 6 0
BBX 5 6 1 0
BITMAP
88
A8
A8
A8
A8
50
ENDCHAR

STARTCHAR x
ENCODING 120
SWIDTH 432 0
DWIDTH 6 0
BBX 5 6 1 0
BITMAP
D8
50
20
20
50
D8
ENDCHAR

STARTCHAR y
ENCODING 121
SWIDTH 432 0
DWIDTH 6 0
BBX 5 8 1 -2
BITMAP
88
88
88
50
50
20
20
C0
ENDCHAR

STARTCHAR z
ENCODING 122
SWIDTH 432 0
DWIDTH 6 0
BBX 5 6 1 0
BITMAP
F8
10
20
40
80
F8
ENDCHAR

STARTCHAR braceleft
ENCODING 123
SWIDTH 432 0
DWIDTH 6 0
BBX 4 10 1 -1
BITMAP
30
40
40
20
C0
20
40
40
40
30
ENDCHAR

STARTCHAR bar
ENCODING 124
SWIDTH 432 0
DWIDTH 6 0
BBX 1 10 3 -1
BITMAP
80
80
80
80
80
80
80
80
80
80
ENDCHAR

STARTCHAR braceright
ENCODING 125
SWIDTH 432 0
DWIDTH 6 0
BBX 4 10 2 -1
BITMAP
C0
20
20
40
30
40
20
20
20
C0
ENDCHAR

STARTCHAR asciitilde
ENCODING 126
SWIDTH 432 0
DWIDTH 6 0
BBX 5 3 1 6
BITMAP
48
A8
90
ENDCHAR

STARTCHAR unknown_0x80
ENCODING 128
SWIDTH 432 0
DWIDTH 6 0
BBX 5 8 1 0
BITMAP
78
A0
A0
B0
A0
A0
A0
78
ENDCHAR

STARTCHAR unknown_0x81
ENCODING 129
SWIDTH 432 0
DWIDTH 6 0
BBX 5 6 1 0
BITMAP
78
A8
A8
B0
A0
78
ENDCHAR

STARTCHAR unknown_0xa1
ENCODING 161
SWIDTH 432 0
DWIDTH 6 0
BBX 1 9 3 -1
BITMAP
80
00
80
80
80
80
80
80
80
ENDCHAR

STARTCHAR cent
ENCODING 162
SWIDTH 432 0
DWIDTH 6 0
BBX 5 9 1 0
BITMAP
20
20
70
88
80
88
70
20
20
ENDCHAR

STARTCHAR sterling
ENCODING 163
SWIDTH 432 0
DWIDTH 6 0
BBX 5 8 1 0
BITMAP
30
48
40
F0
40
40
48
B8
ENDCHAR

STARTCHAR currency
ENCODING 164
SWIDTH 432 0
DWIDTH 6 0
BBX 5 6 1 1
BITMAP
88
70
50
50
70
88
ENDCHAR

STARTCHAR yen
ENCODING 165
SWIDTH 432 0
DWIDTH 6 0
BBX 5 8 1 0
BITMAP
88
88
50
F8
20
F8
20
20
ENDCHAR

STARTCHAR brokenbar
ENCODING 166
SWIDTH 432 0
DWIDTH 6 0
BBX 1 8 3 0
BITMAP
80
80
80
00
00
80
80
80
ENDCHAR

STARTCHAR section
ENCODING 167
SWIDTH 432 0
DWIDTH 6 0
BBX 4 9 2 -1
BITMAP
60
90
40
60
90
60
20
90
60
ENDCHAR

STARTCHAR dieresis
ENCODING 168
SWIDTH 432 0
DWIDTH 6 0
BBX 3 2 2 7
BITMAP
A0
A0
ENDCHAR

STARTCHAR copyright
ENCODING 169
SWIDTH 432 0
DWIDTH 6 0
BBX 6 8 0 0
BITMAP
78
84
B4
A4
A4
B4
84
78
ENDCHAR

STARTCHAR multiply
ENCODING 170
SWIDTH 432 0
DWIDTH 6 0
BBX 5 5 1 2
BITMAP
88
50
20
50
88
ENDCHAR

STARTCHAR guillemotleft
ENCODING 171
SWIDTH 432 0
DWIDTH 6 0
BBX 5 5 1 1
BITMAP
28
50
A0
50
28
ENDCHAR

STARTCHAR logicalnot
ENCODING 172
SWIDTH 432 0
DWIDTH 6 0
BBX 5 2 1 7
BITMAP
F8
08
ENDCHAR

STARTCHAR hyphen
ENCODING 173
SWIDTH 432 0
DWIDTH 6 0
BBX 3 1 2 4
BITMAP
E0
ENDCHAR

STARTCHAR registered
ENCODING 174
SWIDTH 432 0
DWIDTH 6 0
BBX 6 8 0 0
BITMAP
78
84
BC
AC
BC
AC
84
78
ENDCHAR

STARTCHAR macron
ENCODING 175
SWIDTH 432 0
DWIDTH 6 0
BBX 5 1 1 8
BITMAP
F8
ENDCHAR

STARTCHAR degree
ENCODING 176
SWIDTH 432 0
DWIDTH 6 0
BBX 3 3 2 6
BITMAP
40
A0
40
ENDCHAR

STARTCHAR plusminus
ENCODING 177
SWIDTH 432 0
DWIDTH 6 0
BBX 5 7 1 0
BITMAP
20
20
F8
20
20
00
F8
ENDCHAR

STARTCHAR twosuperior
ENCODING 178
SWIDTH 432 0
DWIDTH 6 0
BBX 3 5 2 4
BITMAP
C0
20
40
80
E0
ENDCHAR

STARTCHAR threesuperior
ENCODING 179
SWIDTH 432 0
DWIDTH 6 0
BBX 3 5 2 4
BITMAP
C0
20
40
20
C0
ENDCHAR

STARTCHAR acute
ENCODING 180
SWIDTH 432 0
DWIDTH 6 0
BBX 2 2 3 9
BITMAP
40
80
ENDCHAR

STARTCHAR mu
ENCODING 181
SWIDTH 432 0
DWIDTH 6 0
BBX 5 7 1 -1
BITMAP
50
50
50
50
50
68
80
ENDCHAR

STARTCHAR paragraph
ENCODING 182
SWIDTH 432 0
DWIDTH 6 0
BBX 5 10 1 -1
BITMAP
78
E8
E8
E8
E8
68
28
28
28
28
ENDCHAR

STARTCHAR periodcentered
ENCODING 183
SWIDTH 432 0
DWIDTH 6 0
BBX 1 2 3 3
BITMAP
80
80
ENDCHAR

STARTCHAR cedilla
ENCODING 184
SWIDTH 432 0
DWIDTH 6 0
BBX 2 3 2 -2
BITMAP
40
40
C0
ENDCHAR

STARTCHAR onesuperior
ENCODING 185
SWIDTH 432 0
DWIDTH 6 0
BBX 3 5 2 4
BITMAP
40
C0
40
40
E0
ENDCHAR

STARTCHAR divide
ENCODING 186
SWIDTH 432 0
DWIDTH 6 0
BBX 5 7 1 1
BITMAP
20
20
00
F8
00
20
20
ENDCHAR

STARTCHAR guillemotright
ENCODING 187
SWIDTH 432 0
DWIDTH 6 0
BBX 5 5 1 1
BITMAP
A0
50
28
50
A0
ENDCHAR

STARTCHAR onequarter
ENCODING 188
SWIDTH 432 0
DWIDTH 6 0
BBX 5 10 1 -1
BITMAP
40
C0
48
50
20
50
B0
50
78
10
ENDCHAR

STARTCHAR onehalf
ENCODING 189
SWIDTH 432 0
DWIDTH 6 0
BBX 5 10 1 -1
BITMAP
40
C0
48
50
20
58
A8
10
20
38
ENDCHAR

STARTCHAR threequarters
ENCODING 190
SWIDTH 432 0
DWIDTH 6 0
BBX 5 10 1 -1
BITMAP
C0
20
48
30
E0
50
B0
50
78
10
ENDCHAR

STARTCHAR unknown_0xbf
ENCODING 191
SWIDTH 432 0
DWIDTH 6 0
BBX 5 8 1 -1
BITMAP
20
00
20
20
40
80
88
70
ENDCHAR

STARTCHAR dblunderscore
ENCODING 223
SWIDTH 432 0
DWIDTH 6 0
BBX 6 13 0 -1
BITMAP
00
00
00
00
00
00
00
00
00
7C
00
00
7C
ENDCHAR

STARTCHAR aleph
ENCODING 224
SWIDTH 432 0
DWIDTH 6 0
BBX 6 12 0 -1
BITMAP
00
00
00
00
44
24
34
58
48
44
44
00
ENDCHAR

STARTCHAR beth
ENCODING 225
SWIDTH 432 0
DWIDTH 6 0
BBX 6 12 0 -1
BITMAP
00
00
00
00
38
08
08
08
08
08
3C
00
ENDCHAR

STARTCHAR gimmel
ENCODING 226
SWIDTH 432 0
DWIDTH 6 0
BBX 6 12 0 -1
BITMAP
00
00
00
00
38
08
08
08
18
28
48
00
ENDCHAR

STARTCHAR daleth
ENCODING 227
SWIDTH 432 0
DWIDTH 6 0
BBX 6 12 0 -1
BITMAP
00
00
00
00
7C
08
08
08
08
08
08
00
ENDCHAR

STARTCHAR he
ENCODING 228
SWIDTH 432 0
DWIDTH 6 0
BBX 6 12 0 -1
BITMAP
00
00
00
00
7C
04
04
44
44
44
44
00
ENDCHAR

STARTCHAR waw
ENCODING 229
SWIDTH 432 0
DWIDTH 6 0
BBX 6 12 0 -1
BITMAP
00
00
00
00
30
10
10
10
10
10
10
00
ENDCHAR

STARTCHAR zayin
ENCODING 230
SWIDTH 432 0
DWIDTH 6 0
BBX 6 12 0 -1
BITMAP
00
00
00
00
70
20
20
10
10
10
10
00
ENDCHAR

STARTCHAR het
ENCODING 231
SWIDTH 432 0
DWIDTH 6 0
BBX 6 12 0 -1
BITMAP
00
00
00
00
78
48
48
48
48
48
48
00
ENDCHAR

STARTCHAR teth
ENCODING 232
SWIDTH 432 0
DWIDTH 6 0
BBX 6 12 0 -1
BITMAP
00
00
00
00
48
54
54
44
44
44
38
00
ENDCHAR

STARTCHAR yod
ENCODING 233
SWIDTH 432 0
DWIDTH 6 0
BBX 6 12 0 -1
BITMAP
00
00
00
00
38
08
08
08
00
00
00
00
ENDCHAR

STARTCHAR kaphfinal
ENCODING 234
SWIDTH 432 0
DWIDTH 6 0
BBX 6 12 0 -1
BITMAP
00
00
00
00
3C
04
04
04
04
04
04
04
ENDCHAR

STARTCHAR kaph
ENCODING 235
SWIDTH 432 0
DWIDTH 6 0
BBX 6 12 0 -1
BITMAP
00
00
00
00
38
04
04
04
04
04
38
00
ENDCHAR

STARTCHAR lamed
ENCODING 236
SWIDTH 432 0
DWIDTH 6 0
BBX 6 12 0 -1
BITMAP
00
00
40
40
7C
04
04
08
08
10
10
00
ENDCHAR

STARTCHAR memfinal
ENCODING 237
SWIDTH 432 0
DWIDTH 6 0
BBX 6 12 0 -1
BITMAP
00
00
00
00
78
44
44
44
44
44
7C
00
ENDCHAR

STARTCHAR mem
ENCODING 238
SWIDTH 432 0
DWIDTH 6 0
BBX 6 12 0 -1
BITMAP
00
00
00
00
48
34
24
24
44
44
5C
00
ENDCHAR

STARTCHAR nunfinal
ENCODING 239
SWIDTH 432 0
DWIDTH 6 0
BBX 6 13 0 -2
BITMAP
00
00
00
00
38
08
08
08
08
08
08
08
08
ENDCHAR

STARTCHAR nun
ENCODING 240
SWIDTH 432 0
DWIDTH 6 0
BBX 6 12 0 -1
BITMAP
00
00
00
00
30
08
08
08
08
08
38
00
ENDCHAR

STARTCHAR samekh
ENCODING 241
SWIDTH 432 0
DWIDTH 6 0
BBX 6 12 0 -1
BITMAP
00
00
00
00
78
44
44
44
44
44
38
00
ENDCHAR

STARTCHAR ayin
ENCODING 242
SWIDTH 432 0
DWIDTH 6 0
BBX 6 12 0 -1
BITMAP
00
00
00
00
24
24
24
24
24
24
78
00
ENDCHAR

STARTCHAR pefinal
ENCODING 243
SWIDTH 432 0
DWIDTH 6 0
BBX 6 13 0 -2
BITMAP
00
00
00
00
3C
24
24
24
34
04
04
04
04
ENDCHAR

STARTCHAR pe
ENCODING 244
SWIDTH 432 0
DWIDTH 6 0
BBX 6 12 0 -1
BITMAP
00
00
00
00
38
24
24
34
04
04
3C
00
ENDCHAR

STARTCHAR zadikfinal
ENCODING 245
SWIDTH 432 0
DWIDTH 6 0
BBX 6 13 0 -2
BITMAP
00
00
00
00
44
44
48
70
40
40
40
40
40
ENDCHAR

STARTCHAR zadik
ENCODING 246
SWIDTH 432 0
DWIDTH 6 0
BBX 6 12 0 -1
BITMAP
00
00
00
00
44
24
28
10
08
04
7C
00
ENDCHAR

STARTCHAR kof
ENCODING 247
SWIDTH 432 0
DWIDTH 6 0
BBX 6 13 0 -2
BITMAP
00
00
00
00
7C
04
04
48
48
50
50
40
40
ENDCHAR

STARTCHAR resh
ENCODING 248
SWIDTH 432 0
DWIDTH 6 0
BBX 6 12 0 -1
BITMAP
00
00
00
00
78
08
08
08
08
08
08
00
ENDCHAR

STARTCHAR shin
ENCODING 249
SWIDTH 432 0
DWIDTH 6 0
BBX 6 12 0 -1
BITMAP
00
00
00
00
54
54
54
54
44
44
38
00
ENDCHAR

STARTCHAR taf
ENCODING 250
SWIDTH 432 0
DWIDTH 6 0
BBX 6 12 0 -1
BITMAP
00
00
00
00
7C
24
24
24
24
24
64
00
ENDCHAR
ENDFONT
